<svg width="60" height="24" xmlns="http://www.w3.org/2000/svg" xmlns:svg="http://www.w3.org/2000/svg" preserveAspectRatio="xMidYMid meet">
 <g class="layer">
  <title>Layer 1</title>
  <g id="svg_1">
   <path d="m3.29,21.00371l0.71,-4l-4,0l0.35,-2l4,0l1.06,-6l-4,0l0.35,-2l4,0l0.71,-4l2,0l-0.71,4l6,0l0.71,-4l2,0l-0.71,4l4,0l-0.35,2l-4,0l-1.06,6l4,0l-0.35,2l-4,0l-0.71,4l-2,0l0.71,-4l-6,0l-0.71,4l-2,0m4.12,-12l-1.06,6l6,0l1.06,-6l-6,0z" fill="#1e3b8a" id="svg_2" stroke-width="0"/>
  </g>
  <g id="svg_5">
   <path d="m23.47065,20.99629l0.71,-4l-4,0l0.35,-2l4,0l1.06,-6l-4,0l0.35,-2l4,0l0.71,-4l2,0l-0.71,4l6,0l0.71,-4l2,0l-0.71,4l4,0l-0.35,2l-4,0l-1.06,6l4,0l-0.35,2l-4,0l-0.71,4l-2,0l0.71,-4l-6,0l-0.71,4l-2,0m4.12,-12l-1.06,6l6,0l1.06,-6l-6,0z" fill="#1e3b8a" id="svg_4" stroke-width="0"/>
  </g>
  <g id="svg_3">
   <path d="m43.47065,20.99629l0.71,-4l-4,0l0.35,-2l4,0l1.06,-6l-4,0l0.35,-2l4,0l0.71,-4l2,0l-0.71,4l6,0l0.71,-4l2,0l-0.71,4l4,0l-0.35,2l-4,0l-1.06,6l4,0l-0.35,2l-4,0l-0.71,4l-2,0l0.71,-4l-6,0l-0.71,4l-2,0m4.12,-12l-1.06,6l6,0l1.06,-6l-6,0z" fill="#1e3b8a" id="svg_6" stroke-width="0"/>
  </g>
 </g>
</svg>